<?xml version="1.0" encoding="UTF-8" standalone="yes"?>
<!-- Created with sK1/UniConvertor (http://sk1project.org/) -->
<svg xmlns="http://www.w3.org/2000/svg" xmlns:xlink="http://www.w3.org/1999/xlink"
  width="208pt" height="208pt" viewBox="0 0 208 208"
  fill-rule="evenodd">
<g>
<g>
<path style="stroke:none; fill:#20befb" d="M 60 18.6C 49.3 23 43.2 28.8 41 36.5C 35.8 55 51.6 72.7 70.2 69.2C 94.1 64.8 99.3 33.2 78.1 21.6C 72.9 18.8 63.4 17.3 60 18.6z"/>
<path style="stroke:none; fill:#20befb" d="M 189.5 46.7C 185.1 53.2 179.9 60.8 177.8 63.7C 175.7 66.6 174 69.5 174 70.3C 174 72.4 179.7 77.3 181.3 76.7C 182.1 76.4 185 72.8 187.7 68.8C 190.5 64.8 195.5 57.4 199 52.3C 206 42.1 206.3 39.8 201.1 36.7C 199.5 35.8 198 35 197.8 35C 197.6 35 193.8 40.3 189.5 46.7z"/>
<path style="stroke:none; fill:#20befb" d="M 161.4 77.8C 155 81.8 154.8 90.6 161 95C 167.9 99.9 177 95 177 86.5C 177 79 167.8 73.9 161.4 77.8z"/>
<path style="stroke:none; fill:#20befb" d="M 45.8 80.3C 44.4 81 35.4 88.7 26 97.5C 16.5 106.3 7.5 114.4 5.9 115.5C 2.4 117.9 2.3 119.3 5.2 121.7C 8.2 124.2 32.6 150.1 36.8 155.2C 40 159.3 40 159.3 40 170.9L 40 182.6L 43.5 186.3L 47 190L 66.5 190C 79.4 190 86 189.6 86 189C 86 188.4 87.2 186.8 88.8 185.5L 91.5 183.2L 91.7 151.5C 91.8 130.5 92.2 119.4 92.9 118.7C 93.7 117.9 96.8 120.4 103.8 127.4C 116.2 139.7 116.7 140.1 119.2 137.7C 122.4 134.8 130 128.1 135.5 123.5C 138.7 120.7 143.5 116.7 146 114.4C 148.6 112.2 152.3 109.1 154.3 107.6C 158.6 104.3 158.9 102.3 155.8 98.3C 151.9 93.5 149 89.1 149 88.1C 149 86.6 146.5 86.2 144.4 87.4C 143.3 88 137 92.9 130.3 98.2C 123.6 103.6 117.3 108 116.4 108C 115.4 108 108 101.5 100 93.5L 85.3 79L 66.9 79C 54.8 79.1 47.6 79.5 45.8 80.3zM 39.8 121C 40.2 127.6 39 129.1 35.3 126.3C 31.4 123.4 31.1 120.1 34.7 117.3C 36.2 116 38 115.2 38.5 115.3C 39.1 115.5 39.6 118 39.8 121zM 81.8 129.3C 83.9 131 83.1 174.7 81 176C 80.2 176.5 74 177 67.3 177C 51.7 177 52 177.3 52 163.6C 52 154.6 52.2 153.1 54 151.5C 55.1 150.5 56 149 56 148.3C 56 147.5 55.1 145.7 54 144.3C 52.5 142.4 52 140.2 52 136.1C 52 130.3 52.6 128.6 54.7 127.9C 57.4 127.1 80.6 128.3 81.8 129.3z"/>
</g>
</g>
</svg>