<?xml version="1.0" encoding="UTF-8" standalone="yes"?>
<svg xmlns="http://www.w3.org/2000/svg" xmlns:xlink="http://www.w3.org/1999/xlink"
  width="200pt" height="200pt" viewBox="0 0 200 200"
  fill-rule="evenodd">
<g>
<g>
<path style="stroke:none; fill:#092a45" d="M 51 35.4L 2.5 59.8L 14.5 63.5C 21.1 65.5 29.9 68.2 34 69.5L 41.5 71.8L 41.8 81.4C 41.9 86.7 42.3 91 42.5 91C 42.7 91 45.9 88.7 49.6 86C 80.8 62.3 117.7 62.4 150.3 86.1C 154 88.8 157.2 91 157.5 91C 157.7 91 158.1 86.7 158.2 81.4L 158.5 71.8L 166 69.4C 170.1 68.1 173.8 67 174.3 67C 174.7 67 175 72.6 175 79.5C 175 90.7 174.8 92.4 172.9 94.9C 171.2 97.2 171 98.2 171.9 99.8C 172.5 100.9 173 106.4 173 111.9L 173 122L 176 122L 179 122L 179 112.1C 179 106.5 179.4 101.8 180 101.5C 181.5 100.5 181.2 95.4 179.5 94C 178.2 92.9 178 90.3 178.2 79.1L 178.5 65.6L 188 62.6L 197.4 59.7L 149 35.4C 122.3 22 100.3 11.1 100 11.1C 99.7 11.1 77.7 22.1 51 35.4z"/>
<path style="stroke:none; fill:#03A0C9" d="M 82 74.1C 69 77.5 55 85.2 45.3 94.3L 42 97.4L 42 121.4C 42.1 154.7 40.8 152.7 70 169.5C 86.4 179 94.4 183 97.1 183C 98.2 183 94.1 171.2 89.7 161.8C 81 143 64.7 123.7 50.8 115.6C 34.9 106.5 53.6 108.9 73.5 118.5C 81.9 122.5 86.3 125.4 91.8 130.5L 99 137.2L 101.9 134.9C 103.5 133.6 108.6 129.3 113.2 125.4C 130.7 110.4 152.5 97.1 155.2 99.8C 156.1 100.7 154.1 103.3 146.9 110.7C 127.4 130.9 117.2 146.2 110.3 166C 107.2 174.8 105.5 182 106.5 182C 109.6 182 148.2 159.1 152.1 155C 157.5 149.2 158 146.1 158 120.2L 158 97.2L 154.5 94.2C 133.8 76 105.2 68 82 74.1zM 108.2 91.7C 113.5 93.8 118 95.8 118 96.1C 118 96.5 117.1 97 115.9 97.3C 114.7 97.6 114.1 98.3 114.4 98.8C 114.7 99.3 115.2 101.9 115.5 104.5C 116 108.5 115.9 109.2 114.6 108.7C 113.3 108.2 113 108.8 113 111.3C 113 118.1 106.8 124 99.5 124C 94.6 124 90.6 121.7 88 117.4C 86 114.3 85.8 113 86.4 107.6L 87 101.3L 82.9 100.6C 80.6 100.2 79.1 99.6 79.4 99.2C 80.8 97.9 96.5 88.1 97.4 88.1C 97.9 88 102.8 89.7 108.2 91.7z"/>
<path style="stroke:none; fill:#03A0C9" d="M 111.1 100.7C 111.1 101.7 111.5 103.4 112 104.5C 112.7 106.1 112.9 105.8 112.9 102.7C 113 100.7 112.6 99 112 99C 111.5 99 111 99.8 111.1 100.7z"/>
</g>
</g>
</svg>