<?xml version="1.0" encoding="UTF-8" standalone="yes"?>
<!-- Created with sK1/UniConvertor (http://sk1project.org/) -->
<svg xmlns="http://www.w3.org/2000/svg" xmlns:xlink="http://www.w3.org/1999/xlink"
  width="373pt" height="460pt" viewBox="0 0 373 460"
  fill-rule="evenodd">
<g>
<g>
<path style="stroke:none; fill:#000000" d="M 61 3.60001C 48.1 6.30002 33.9 12.5 27.4 18.2C 23.1 22 20.1 28 20 32.8C 20 36.7 25.2 49.8 31.7 62.1L 36.2 70.8L 40.4 69C 53.3 63.3 72.9 67.5 82.4 78C 89.7 86.1 89.5 83.9 89.8 139.2L 90.1 189L 45.5 189C 19.4 189 0.999996 189.4 1.2 189.9C 1.4 190.4 10.9 200.7 22.5 212.8L 43.5 234.8L 66.7 234.9L 90 235L 90.2 312.3L 90.5 389.5L 93.6 396C 105 419.8 138.6 447.1 166.5 455.2C 173.4 457.2 176.5 457.5 189.5 457.3C 235.4 456.9 275 439.3 310.2 403.7C 352.1 361.4 373.3 313.3 370.6 266.9C 368.9 240.2 361.3 219.6 345.5 199.4C 334.6 185.5 319.7 175.4 304 171.3C 295.5 169.1 275.2 169.1 265.7 171.4C 247.3 175.7 234.8 187.2 227.9 206C 225.7 211.8 225.5 214.1 225.5 228C 225.5 239.6 226 245.1 227.3 250C 234.6 277.2 253.4 290.3 284.9 290.3L 297.2 290.3L 296.6 296.2C 295.6 304.5 291.7 317.7 287.4 326.6C 277.2 348.1 253.6 374.5 231 389.5C 214.7 400.4 201.4 405 185.9 405C 163.4 405 150.1 398.1 142.3 382.2L 138.5 374.6L 138.2 304.8L 137.9 235L 173.4 234.8L 208.8 234.5L 186.4 211.7L 164 189L 151 189L 138 189L 138 139C 138 87.6 137.4 76 133.9 61C 130.3 45.3 125.1 34.4 115.7 22.1C 103.3 6 82.5 -1.10001 61 3.60001z"/>
</g>
</g>
</svg>