<?xml version="1.0" encoding="UTF-8" standalone="yes"?>
<!-- Created with sK1/UniConvertor (http://sk1project.org/) -->
<svg xmlns="http://www.w3.org/2000/svg" xmlns:xlink="http://www.w3.org/1999/xlink"
  width="790pt" height="782pt" viewBox="0 0 790 782"
  fill-rule="evenodd">
<g>
<g>
<path style="stroke:none; fill:#003f9c" d="M 481.9 28.3C 472.2 40 454.7 61 442.9 75C 431.1 89 411.1 112.9 398.5 128C 385.8 143.1 364.9 168.1 352 183.4C 279.6 269.5 279 270.3 280.8 271.6C 281.7 272.2 286.6 275 291.5 277.8C 296.5 280.5 305.9 285.8 312.5 289.5C 332.3 300.6 340.1 305 348.9 309.9C 364.1 318.2 373.5 328.9 378 342.9C 379.9 348.9 380.2 351.5 379.8 360.2C 379.4 369 378.9 371.6 376.2 378C 366.7 400.3 342.7 414.1 320.3 410.1C 316.8 409.4 295.2 402.9 272.3 395.5C 249.3 388.2 230.4 382.3 230.2 382.4C 230.1 382.6 244.7 395 262.6 410.1C 280.6 425.2 301.2 442.5 308.4 448.5C 315.6 454.6 333.8 469.9 348.9 482.5C 364 495.2 379.1 507.8 382.5 510.7L 388.7 515.9L 393.2 510.7C 395.6 507.8 407.1 494.2 418.6 480.5C 430.1 466.7 450.1 442.8 463 427.5C 494.6 389.8 519.6 360 587.5 279C 625.6 233.5 646.1 209.1 665.9 185.6C 676 173.5 684.3 163.1 684.4 162.5C 684.5 161.9 680.2 157.8 675 153.4C 669.8 149 650 132.4 631 116.5C 612 100.6 592 83.8 586.5 79.1C 581 74.5001 567.3 63.0001 556.1 53.6C 544.8 44.2 527.8 29.9 518.1 21.7C 508.5 13.6 500.4 7 500.1 7.10004C 499.8 7.10004 491.6 16.7 481.9 28.3zM 456.1 185.6C 472.7 189.4 485.8 196.6 498.1 208.9C 511.4 222.2 519.2 237.4 522 255.5C 527.7 291.9 505.5 325.9 469.4 336.2C 458.3 339.3 441 339.3 429.1 336.1C 390.6 325.8 363.8 289.6 366.3 251.3C 367.5 233.2 374.1 218.9 387.5 205.4C 394.9 197.9 398 195.5 405 192.1C 409.7 189.8 416.9 187.1 421 186C 430.5 183.6 446.4 183.4 456.1 185.6z"/>
<path style="stroke:none; fill:#003f9c" d="M 425 214.6C 422.5 216 418.9 218.7 417 220.5L 413.5 224L 409 220C 406.5 217.9 404.2 216.1 403.9 216C 403.5 216 400.5 219.3 397.2 223.4L 391 230.8L 396.3 235.2L 401.6 239.5L 400.3 242.8C 396.2 252.9 398.2 265.7 404.9 272.9C 415 283.6 428.9 283.7 446.8 273C 454.7 268.3 459.6 267.2 462.4 269.3C 467.8 273.3 458.7 285.5 445.3 292.2L 438.2 295.8L 444.7 304.6C 449.7 311.5 451.6 313.4 453.2 313.2C 456.1 312.9 464.8 307.5 469 303.4L 472.6 300L 477.8 304.6L 483 309.2L 485.7 305.9C 487.3 304.1 490.2 300.6 492.3 298.2L 496 293.8L 490.5 289.2C 486 285.6 485 284.2 485.5 282.6C 488.2 272.8 488.7 269.9 488.4 265.5C 487.9 259.3 483.9 250.9 479.8 247.5C 473.6 242.3 469 240.5 461.3 240.6C 454.3 240.6 453.5 240.9 440.7 247.3C 433.4 251 426.8 254 425.9 254C 423.7 254 422 251.9 422 249.2C 422 246 431.6 236 438.3 232.5C 441.1 231 443.6 229.6 443.8 229.5C 444.5 228.9 431.7 212 430.7 212C 430 212 427.5 213.2 425 214.6z"/>
<path style="stroke:none; fill:#003f9c" d="M 219.5 135C 209.5 137 162.5 150.1 115.3 164.1C 103.8 167.5 100.8 168 92.1 168L 82 168L 82 245.9L 82 323.7L 100.2 319C 110.3 316.4 123 313.1 128.5 311.6C 140.1 308.5 146 308.4 151.5 310.9C 154 312 160.2 317.4 167 324.4C 178.9 336.5 186.8 342.9 195.5 347.2C 202 350.5 214 354.5 273.5 373.5C 322.1 389.1 322.6 389.2 330.1 388.8C 338.7 388.3 344.3 385.7 350.4 379.4C 356.2 373.5 358.4 367.7 358.4 358.5C 358.5 351.7 358.1 349.6 355.7 344.8C 352 337.2 347.3 333.4 331 324.3C 318.1 317.2 305.8 310.3 281.5 296.5C 275.5 293.1 268.3 289 265.5 287.5C 237.2 271.8 237.6 272.1 234.9 266.7C 231.9 261 232.6 252.6 236.3 247.7C 241.1 241.3 245.6 240 262.2 240L 276.7 240L 301.3 210.7C 314.8 194.7 331.5 174.7 338.4 166.5C 345.3 158.2 351 151.2 351 150.9C 351 150.5 349.3 150 347.3 149.7C 345.2 149.4 326.9 146.2 306.5 142.6C 248.4 132.3 237.6 131.3 219.5 135z"/>
<path style="stroke:none; fill:#003f9c" d="M 12.2 166.7C 14.2 186.5 14.6 190.6 16 206.5C 16.6 213.1 18.8 237.8 21 261.5C 23.2 285.1 25.9 314.4 27 326.5C 28.1 338.6 29.3 350.4 29.6 352.7L 30.2 357L 44.6 357L 59 357L 59 253.5L 59 150L 34.7 150L 10.4 150L 12.2 166.7z"/>
<path style="stroke:none; fill:#003f9c" d="M 226 518.9C 211.8 523.5 203.1 534.6 202.2 549C 201.9 555.1 202.2 557.6 204 562.4C 206.7 569.6 210.7 573.7 234.9 594.5C 253.5 610.5 268.9 624.2 286 640.1C 315.9 667.9 340.4 682.8 368.5 690.2C 376.2 692.3 379.2 692.4 457.5 693C 546.2 693.7 541.7 693.4 555.5 699.9C 561.9 702.8 570.9 710.8 577.6 719.2L 580.5 723L 594.9 721.5C 602.8 720.7 629.1 718.2 653.4 716C 707.9 711 707.6 711.1 712.5 710.5C 716.1 710.1 726.5 709.1 746.5 707.4C 750.4 707 753.7 706.6 753.9 706.4C 754.1 706.3 751.3 698.6 747.7 689.3C 744.1 680.1 738.4 665.3 735 656.5C 711.6 595.5 693.2 563.6 671.1 545.8C 657.4 534.8 643.3 528.9 622.4 525.3C 612.4 523.6 604.4 523.5 523.5 523.5C 435.5 523.5 435.5 523.5 430.8 525.7C 411.4 534.7 407.7 560.7 423.7 576.2C 431.3 583.6 430.4 583.4 479.2 584C 521.6 584.5 522.9 584.6 525.7 586.6C 527.3 587.8 528.9 590.2 529.4 592.4C 530.2 595.4 530 596.5 528.3 598.8C 524.3 604.2 526.7 604.1 454 603.7C 388.4 603.4 386.3 603.3 378.3 601.2C 359 596.1 355.8 594.4 323.5 571.9C 287.3 546.6 253.4 523.6 248.7 521.2C 245 519.3 242.1 518.6 236.2 518.4C 232 518.2 227.4 518.4 226 518.9z"/>
<path style="stroke:none; fill:#003f9c" d="M 757.5 729C 748.2 729.9 737.4 731 733.5 731.4C 715.8 732.9 701.9 734.2 682.5 736C 671 737.1 651.6 738.9 639.5 740C 598.9 743.7 574.5 746 571.3 746.6L 568 747.1L 568 761L 568 775L 671.5 775.2L 775 775.5L 775 751.2C 775 737.9 774.9 727.1 774.8 727.1C 774.6 727.2 766.9 728 757.5 729z"/>
</g>
</g>
</svg>