<?xml version="1.0" encoding="UTF-8" standalone="yes"?>
<!-- Created with sK1/UniConvertor (http://sk1project.org/) -->
<svg xmlns="http://www.w3.org/2000/svg" xmlns:xlink="http://www.w3.org/1999/xlink"
  width="174pt" height="174pt" viewBox="0 0 174 174"
  fill-rule="evenodd">
<g>
<g>
<path style="stroke:none; fill:#003f9c" d="M 114 9.5C 114 16.8 113.9 17 111.5 17C 109.2 17 109 17.4 109 21.4L 109 25.8L 105.3 23.9C 102.1 22.3 99.3 22 86.3 22C 72 22 70.6 22.2 66.2 24.4C 63.5 25.8 59.7 28.7 57.6 31C 50.4 39 50.7 36.9 49.9 93.5C 49.3 128.3 49.4 145.8 50.1 148.5C 52.1 156 57.9 162.4 66.7 166.9C 72.1 169.6 73.9 169.6 71.4 166.9C 69.6 164.9 69.5 162.7 69.5 122.1L 69.5 79.5L 63.6 79.2L 57.6 78.9L 71.6 64.9C 79.2 57.3 85.7 51 86 51C 86.9 51 114 78.3 114 79.2C 114 79.6 111.5 80 108.5 80L 103 80L 103 121.2C 103 160.6 102.9 162.6 101 165.7C 99.4 168.5 99.3 169 100.5 169C 103.3 169 111.9 164.1 115.6 160.4C 123.3 152.6 123 156.5 123 82.7C 123 17.7 123 17 121 17C 119.2 17 119 16.3 119 9.5C 119 2.2 118.9 2 116.5 2C 114.1 2 114 2.2 114 9.5z"/>
</g>
</g>
</svg>