<?xml version="1.0" encoding="UTF-8" standalone="yes"?>
<!-- Created with sK1/UniConvertor (http://sk1project.org/) -->
<svg xmlns="http://www.w3.org/2000/svg" xmlns:xlink="http://www.w3.org/1999/xlink"
  width="215pt" height="235pt" viewBox="0 0 215 235"
  fill-rule="evenodd">
<g>
<g>
<path style="stroke:none; fill:#003f9c" d="M 93 1.09999C 72.8 2.2 69.4 2.79999 66 5.7C 59.7 11 60 5.5 60 102.3L 60 190.7L 62.2 194C 66.3 199.9 68.8 201.1 79.6 202C 108.6 204.6 161.7 204 173.5 200.8L 177.5 199.8L 172.3 197.8C 166 195.5 159.5 188.6 157.9 182.6C 156.8 178.6 157.1 170.3 158.5 166.7C 159.2 165.1 156.7 165 115.1 165L 71 165L 71 98L 71 31L 119.5 31L 168 31L 168 59C 168 77.6 168.3 87 169 87C 169.6 87 172.3 85.9 175 84.5L 180 82L 180 50.2C 180 32.8 179.5 16.7 179 14.5C 177.6 8.3 171.8 3.39999 164.9 2.60001C 146.1 0.300003 117 -0.300003 93 1.09999zM 125.8 12.6C 128.2 14.3 128.7 17.9 126.8 19.8C 126.1 20.5 122.9 21 119.5 21C 113 21 111 19.9 111 16.4C 111 13.3 114.6 11 119.5 11C 121.7 11 124.6 11.7 125.8 12.6zM 115 183.5L 115 189L 110.1 189C 103.8 189 102.1 188.3 100.9 185.2C 100.2 183.4 100.4 182.1 101.5 180.4C 102.8 178.3 103.8 178 109 178L 115 178L 115 183.5zM 137.2 179.7C 139.6 181.8 139.5 184.5 137 187C 135.5 188.5 133.7 189 129.5 189L 124 189L 124 183.5L 124 178L 129.7 178C 133.5 178 135.9 178.5 137.2 179.7z"/>
<path style="stroke:none; fill:#003f9c" d="M 24.3 30.7C 19.9 31.6 19.7 32.9 20.9 48.7C 22.8 72.5 21.2 82.9 11.1 114.2C 2.3 141.4 0.700001 150.2 1.2 166.3C 1.6 177.3 2.1 180.8 4.4 187.5C 13 212.6 34.3 230.2 60.7 234C 74.5 236 81.6 234.5 106 224.3L 126.8 215.5L 120.7 215.3C 93 214.2 71.4 212.7 67.2 211.5C 60.7 209.5 53.9 203.4 50.9 196.8L 48.5 191.5L 48 116.3L 47.5 41.2L 45 38.5C 39.7 32.9 30.6 29.4 24.3 30.7z"/>
<path style="stroke:none; fill:#003f9c" d="M 195 44.4L 191.5 45.7L 191.2 62.4L 191 79L 199.8 74.6C 204.7 72.1 209.9 68.7 211.4 67C 216.7 60.6 214.3 48.3 207 44.5C 203.6 42.7 199.8 42.7 195 44.4z"/>
<path style="stroke:none; fill:#003f9c" d="M 119 61.9C 119 66.7 119 66.7 114.5 68.4C 103.2 72.8 99.5 86.5 107.6 94.1C 109 95.4 114.2 98.5 119.3 101C 130.1 106.3 132.9 109.8 131.4 115.8C 129.5 123.1 120.1 126 110.1 122.1C 107.1 121 104.6 120.1 104.5 120.3C 101.8 126 101.8 126 106.2 128C 108.6 129.1 111.5 130 112.7 130C 117.2 130 118 131 118 136.1C 118 140.9 118.1 141 121 141C 124 141 124 140.9 124 135.6C 124 130.6 124.2 130.2 126.8 129.7C 134.1 128.2 140 120.9 140 113.2C 140 104.3 136.1 99.9 122.9 93.8C 114.5 89.9 112 87.2 112 82.2C 112 78.1 115.7 74.1 119.7 73.9C 124.8 73.6 129.5 74.2 132.7 75.5C 135.8 76.8 135.9 76.8 136.9 73.7C 137.8 71.4 137.7 70.4 136.8 69.8C 135.1 68.7 128.9 67 126.8 67C 125.3 67 125 66.1 125 62C 125 57.1 124.9 57 122 57C 119.1 57 119 57.1 119 61.9z"/>
<path style="stroke:none; fill:#003f9c" d="M 178.4 95.4C 170.9 99 167.5 102.3 166.5 107C 165 113.7 170.4 121.2 177.5 122.6C 182.7 123.5 197.2 116.5 199.6 111.9C 203 105.3 200.8 96.5 195 93.5C 190.5 91.2 186.1 91.7 178.4 95.4z"/>
<path style="stroke:none; fill:#003f9c" d="M 181.6 127.9C 176.7 130.1 171.8 132.7 170.7 133.7C 168.3 135.8 166 141 166 144.2C 166 150.2 173 157.1 179 157C 182.7 156.9 198.8 149.7 202.1 146.6C 207.5 141.5 206.9 131.2 200.9 126.9C 195.7 123.2 191.6 123.4 181.6 127.9z"/>
<path style="stroke:none; fill:#003f9c" d="M 182.2 161.7C 177.6 163.8 172.8 166.5 171.5 167.8C 165 174.1 168.6 185.9 177.7 187.6C 180.4 188.1 182.9 187.5 188.9 185C 193.1 183.1 197.7 180.8 199.1 179.9C 204.9 175.9 205.4 167 200.2 161.8C 195.8 157.3 191.9 157.3 182.2 161.7z"/>
</g>
</g>
</svg>