<?xml version="1.0" encoding="UTF-8" standalone="yes"?>
<!-- Created with sK1/UniConvertor (http://sk1project.org/) -->
<svg xmlns="http://www.w3.org/2000/svg" xmlns:xlink="http://www.w3.org/1999/xlink"
  width="256pt" height="163pt" viewBox="0 0 256 163"
  fill-rule="evenodd">
<g>
<g>
<path style="stroke:none; fill:#fff" d="M 200 6.2C 194.8 8.5 173.5 17.3 152.8 25.9C 132 34.5 114.9 41.9 114.8 42.5C 114.7 43.6 137.6 56 139.8 56C 141 56 147.2 51.8 174.4 32.4C 178.3 29.7 182.1 27.1 182.9 26.6C 183.8 26.2 177.1 33.2 168.1 42.3L 151.7 58.8L 152.5 66.4C 152.8 70.6 153.5 75.2 154 76.7C 154.8 79.4 154.9 79.3 157.6 73.2C 159.2 69.8 160.8 67 161.2 67C 161.6 67 166.2 72.5 171.5 79.2C 176.8 86 181.5 91.6 182 91.8C 182.4 92 184 88.4 185.5 83.8C 189.5 71.2 211.2 4.69998 211.7 3.19998C 212.5 1.29999 210.2 1.89999 200 6.2z"/>
<path style="stroke:none; fill:#fff" d="M 26 70.5C 26 80 26 80 28.5 80C 30.3 80 31 79.5 31 78C 31 76.9 31.4 76 31.8 76C 32.3 76 33.5 76.9 34.5 78C 35.8 79.4 37.6 80 40.8 80L 45.4 80L 42.8 77.2L 40.1 74.5L 42.6 71.7L 45 68.9L 45 71.7C 45.1 76.4 49.2 80 54.5 80C 58.2 80 60.8 78.4 63 74.7C 64.3 72.7 65 72.1 65 73.2C 65 74.1 66.4 76 68.1 77.4C 70.5 79.5 72.2 80 76.5 80C 82.2 80 83.5 79.2 82.5 76C 82 74.5 80.8 74 76.7 73.8C 71.7 73.5 71.5 73.4 71.5 70.5C 71.5 67.6 71.7 67.5 76.5 67.2C 81.8 66.9 83.1 65.9 82.3 62.9C 81.9 61.4 80.8 61 76.8 61C 70.8 61 68.5 62.1 66 66.3L 64.1 69.4L 63.1 66.7C 61.9 63.7 57.4 61 53.4 61C 51.6 61 49.6 62.2 47.4 64.6C 45.5 66.5 44 67.5 44 66.7C 44 66 43 64.4 41.7 63.2C 39.8 61.4 38.2 61 32.7 61L 26 61L 26 70.5zM 38 68C 38 68.5 36.7 69 35.1 69C 33.4 69 31.8 68.5 31.5 68C 31.1 67.4 32.3 67 34.4 67C 36.4 67 38 67.4 38 68zM 57.3 69.1C 58.8 71.5 57.4 74 54.6 74C 51.5 74 49.8 71.3 51.2 68.7C 52.3 66.5 55.8 66.8 57.3 69.1z"/>
<path style="stroke:none; fill:#fff" d="M 84.7 61.7C 84.3 62 84 66.3 84 71.2L 84 80L 87 80C 89.4 80 90 79.6 90 77.8L 90 75.7L 92.3 77.8C 94.5 79.9 101 80.9 101 79.2C 101 78.8 99.4 76.9 97.5 75C 95.6 73.1 94 71.1 94 70.5C 94 69.9 95.6 67.9 97.5 66C 99.4 64.1 101 62.2 101 61.8C 101 60.1 94.3 61 92.4 63.1L 90.6 65.1L 89.8 63.1C 89.1 61.1 86.1 60.3 84.7 61.7z"/>
<path style="stroke:none; fill:#fff" d="M 103.8 62.7C 98.3 66.1 97.5 72.6 101.9 77.1C 104.5 79.7 105.5 80 110.9 80C 116.7 80 117 79.9 117 77.5C 117 75 116.1 74.5 109.5 73.7C 107.8 73.5 108.8 73.2 111.8 73.1C 116.6 73 117 72.8 117 70.6C 117 68.3 116.6 68.1 111.8 67.7L 106.5 67.4L 111.8 67.2C 116.9 67 117 66.9 117 64C 117 61 116.9 61 111.8 61C 108.6 61 105.4 61.7 103.8 62.7z"/>
<path style="stroke:none; fill:#fff" d="M 118.2 63.7C 118.4 66 119 66.6 121.8 66.8L 125 67.1L 125 73.6C 125 79.8 125.1 80 127.5 80C 129.9 80 130 79.8 130 73.6L 130 67.1L 133.3 66.8C 136 66.6 136.5 66.1 136.5 64C 136.5 61.5 136.4 61.5 127.2 61.2L 117.9 60.9L 118.2 63.7z"/>
<path style="stroke:none; fill:#fff" d="M 214.1 62.2C 208.2 63.1 203.9 65.4 200 69.5L 197.5 72.2L 202.9 77L 208.4 81.8L 211.2 79.5C 215.2 76.1 220 75.4 224.4 77.5C 227.8 79.1 231 83.3 231 86C 231 86.6 224.1 87 210.5 87L 190 87L 190 114L 190 141L 215 141C 242.6 141 244.6 140.7 249.3 135.1C 253.3 130.3 254.6 125 253.1 119.8C 249.9 109.3 245 106.6 229.7 106.9L 223.9 107L 221 113.6C 219.3 117.2 218 120.4 218 120.6C 218 120.8 222.6 121.1 228.3 121.2C 237.7 121.5 238.5 121.6 238.5 123.5C 238.5 125.4 237.7 125.5 221.8 125.8L 205 126L 205 114L 205 102L 228.9 102C 256 102 253.7 102.9 253.2 92.9L 252.8 87L 249.5 87C 246.5 87 246.2 86.7 245.6 82.9C 243.3 68.5 230.1 59.8 214.1 62.2z"/>
<path style="stroke:none; fill:#fff" d="M 17.5 89.4C -4.3 99.7 -3.5 130.7 18.8 139L 24.3 141.1L 27.4 137.6C 33.8 130.7 44.1 130.6 49.8 137.6C 52.6 141 52.9 141.1 58.6 140.8L 64.5 140.5L 64.5 114L 64.5 87.5L 43.5 87.2C 23.2 87 22.3 87.1 17.5 89.4zM 50 114L 50 126L 37.1 126C 24.7 126 24 125.9 21.1 123.4C 14.7 118 15.2 108.3 22.2 104C 25 102.3 27.2 102 37.8 102L 50 102L 50 114z"/>
<path style="stroke:none; fill:#fff" d="M 77 91C 73.8 97.3 72 105.8 72 115C 72 124.6 73.6 130.8 78 138.5C 82.5 146.4 83.3 146.8 87.6 143.4C 96.1 136.7 95.5 137.8 92.6 133.5C 84.5 121.6 85.3 103 94.5 92.3C 96.4 90 98 87.9 98 87.6C 98 87.3 93.7 87 88.5 87L 79 87L 77 91z"/>
<path style="stroke:none; fill:#fff" d="M 113 87.9C 101.3 91.6 93.7 102.1 93.8 114.5C 93.9 122 95.9 127.3 100.8 132.3C 108.3 140.1 109.7 140.5 134.8 140.8L 157 141.1L 157 121.6C 157 100.2 156.9 100.4 162.8 104C 168.6 107.5 169.7 115.2 165.4 121.5L 162.8 125.3L 168 130.4L 173.1 135.5L 176 132.1C 180.5 126.8 182.4 122.1 182.8 114.7C 183.5 103.7 178.5 95.5 167.6 89.7C 163.7 87.6 162.1 87.5 139.5 87.3C 126.3 87.2 114.4 87.5 113 87.9zM 142 114.1L 142 126.2L 128.4 125.8L 114.8 125.5L 112 122.2C 110.5 120.3 109 117.6 108.7 116.2C 107.9 112 110.2 106.8 113.9 104.3C 117 102.2 118.4 102 129.6 102L 142 102L 142 114.1z"/>
<path style="stroke:none; fill:#fff" d="M 30.4 138.4C 27.4 141.4 27 142.4 27 146.8C 27 151.1 27.5 152.3 30 154.9C 33.8 158.7 38.5 159.7 43.3 157.7C 48 155.7 50.5 151.7 50.5 146.2C 50.5 142.4 50 141.4 46.8 138.4C 43.6 135.6 42.3 135 38.4 135C 34.5 135 33.3 135.5 30.4 138.4z"/>
<path style="stroke:none; fill:#fff" d="M 231.8 143.1C 230.8 143.7 230 144.7 230 145.5C 230 146.2 229.4 147.1 228.8 147.3C 228 147.6 228.2 147.9 229.2 147.9C 230.5 148 231 149.2 231.3 153.2L 231.6 158.5L 231.8 153.2L 232 148L 236.3 148L 240.5 148.1L 237.2 149.8C 234.7 151.2 234.2 151.8 235.2 152.8C 235.9 153.5 237 154 237.6 154C 238.3 154 239.6 155 240.4 156.2C 242 158.4 242 158.3 242 154.2C 242 150.2 243.1 148.8 244.5 151C 244.8 151.5 244.6 152 244.1 152C 243.5 152 243 152.4 243 153C 243 154.4 245.7 154.3 246.6 152.8C 247 152.2 246.3 150.9 245 149.8L 242.8 148L 245.4 148C 246.8 148 247.9 148.3 247.9 148.7C 247.3 152.7 248.3 155 251.5 156.9C 255.8 159.4 256 158.7 251.9 155.2C 248.9 152.7 248.8 152.6 250.9 151.8C 252 151.4 253 150.7 253 150.2C 253 149 250.5 146.9 249.4 147.1C 245.9 147.7 232 146.8 232 146C 232 144.2 235.2 143.6 238.4 144.8C 240.9 145.8 241.2 145.8 240 144.6C 237.9 142.7 233.8 141.9 231.8 143.1zM 251 149.4C 251 149.7 250.6 150.2 250 150.5C 249.5 150.8 249 150.6 249 150.1C 249 149.5 249.5 149 250 149C 250.6 149 251 149.2 251 149.4zM 240.5 152C 240.2 152.5 239.5 153 238.9 153C 238.4 153 238 152.5 238 152C 238 151.4 238.7 151 239.6 151C 240.4 151 240.8 151.4 240.5 152z"/>
<path style="stroke:none; fill:#fff" d="M 171.3 144.5C 171.5 145 173.4 145.8 175.6 146.1C 177.7 146.4 173.7 146.8 166.5 146.8C 159.4 146.8 150 146.9 145.8 146.9C 137.2 147 135 148.2 135 152.9C 135 156.1 137.2 158.5 139.5 157.6C 141.8 156.7 141.3 154.8 138.8 155.2C 135.8 155.6 135.3 152.7 137.9 150.1C 139.7 148.3 140.4 148.2 142.5 149.2C 145.3 150.5 145.8 152 143.4 152C 142.5 152 142 152.6 142.3 153.2C 142.5 153.9 143.6 154.5 144.8 154.5C 146 154.5 147.5 155.1 148.2 155.8C 150.1 157.7 150.8 157.2 150.5 153.8C 150.3 152 150.4 150 150.7 149.3C 151.7 146.8 153 149.2 153 153.6C 153 156 153.5 158 154 158C 154.6 158 155 155.7 155 153L 155 148L 159.3 148L 163.5 148.1L 160.2 149.8C 157.7 151.2 157.2 151.8 158.2 152.8C 158.9 153.5 160 154 160.7 154C 161.4 154 162.5 154.9 163.2 156C 165.2 159.2 165.9 158.4 165.6 153C 165.5 149.5 165.8 148 166.7 148C 167.6 148 168 149.6 168 153C 168 155.7 168.5 158 169 158C 169.6 158 170 155.7 170 153C 170 148.2 170.1 148 172.8 148C 174.7 148 175.1 148.3 174.1 148.9C 173.4 149.4 173.1 150.3 173.5 150.9C 174 151.8 174.5 151.8 175.6 150.9C 177.3 149.5 178.5 150.3 177.5 152C 177.1 152.7 175.7 152.9 174.4 152.6C 171.6 151.9 171 153.8 173.8 154.6C 174.7 154.9 177 155.8 178.8 156.6C 180.5 157.3 182 157.6 182 157.1C 182 156.5 181.1 155.8 179.9 155.5C 178.4 155 178.1 154.5 178.9 153.7C 180.4 152.2 180.3 149.3 178.8 148.7C 178.1 148.4 180.9 148.2 185 148.3C 189.8 148.3 190.9 148.5 188 148.7C 183.4 149.1 181.8 150.3 182.7 152.7C 183.4 154.4 187 154.4 187 152.6C 187 151.9 188 151.3 189.3 151.4C 190.8 151.5 191.4 152.1 191.2 153.3C 191 154.2 191.4 155.8 191.9 156.8C 192.7 158.1 192.9 157.3 193 153.3C 193 150.2 193.5 148 194.3 147.7C 194.9 147.4 192.3 147.1 188.4 147.1C 183.6 147 180.9 146.5 180.1 145.6C 178.7 143.9 170.8 142.9 171.3 144.5zM 149 150.5C 149 153.7 147.8 153.7 146.3 150.5C 145.3 148.3 145.4 148 147.1 148C 148.5 148 149 148.7 149 150.5zM 164 152.5C 164 153.4 163.4 153.7 162.5 153.4C 161.7 153 161 152.4 161 151.9C 161 151.4 161.7 151 162.5 151C 163.3 151 164 151.7 164 152.5z"/>
<path style="stroke:none; fill:#fff" d="M 61.9 146.8L 54.2 147.1L 55.3 150.6C 56.6 154.8 60 157.4 62.9 156.5C 67 155.2 66.5 149.4 62.4 150.4C 60.6 150.9 60.2 150.7 60.6 149.5C 61 148.6 62.5 148 64.6 148C 68 148 68 148.1 68 152.4C 68 154.9 68.5 157.2 69 157.5C 69.6 157.9 70 156.2 70 153.1C 70 149.2 70.4 148 71.5 148C 72.6 148 73 149.1 73 152C 73 156.8 75.1 158.2 78 155.5C 80.7 153 80.5 151.2 77.3 149.8L 74.5 148.6L 78.5 148C 82.2 147.4 82 147.3 76 146.9C 72.4 146.7 66.1 146.6 61.9 146.8zM 59 150.6C 59 152.9 59.3 153.2 61.5 152.7C 63.1 152.4 63.9 152.7 63.7 153.4C 62.7 156.5 57.7 154.3 56.5 150.2C 56 148.6 56.3 148 57.4 148C 58.5 148 59 148.9 59 150.6zM 77.4 151.9C 77.7 152.4 77.3 153.3 76.5 154C 75.2 155 75 154.9 75 153.1C 75 151 76.4 150.3 77.4 151.9z"/>
<path style="stroke:none; fill:#fff" d="M 94.5 147.1C 88.8 147.5 88.3 147.7 92 147.9L 96.5 148.1L 93.3 149.7C 89.3 151.7 89.1 152.7 92.5 153.6C 93.9 153.9 95.7 155.2 96.5 156.3C 97.9 158.3 98 158.1 98 153.1C 98 146.3 100.3 146.6 101.1 153.6C 101.7 159 102.3 158.6 102 152.9C 101.8 148.9 103.5 146.8 104.3 150C 104.9 152.3 108.5 152.7 109.3 150.6C 109.9 149.1 107.4 146.3 106.4 147.3C 106.1 147.6 104.8 147.6 103.6 147.2C 102.5 146.8 98.4 146.7 94.5 147.1zM 108 149.4C 108 149.7 107.6 150.2 107 150.5C 106.5 150.8 106 150.6 106 150.1C 106 149.5 106.5 149 107 149C 107.6 149 108 149.2 108 149.4zM 97 152.5C 97 153.4 96.4 153.7 95.5 153.4C 94.7 153 94 152.4 94 151.9C 94 151.4 94.7 151 95.5 151C 96.3 151 97 151.7 97 152.5z"/>
<path style="stroke:none; fill:#fff" d="M 118 147.1C 111.2 147.6 111 147.7 115.5 148L 120.5 148.3L 116 148.9C 112.4 149.4 111.5 149.9 111.5 151.5C 111.5 152.8 112.3 153.6 113.8 153.8C 115.1 154 116 153.6 116 152.8C 116 152 116.9 151.4 118 151.3C 119.6 151.2 120 151.7 120 154C 120 155.6 120.5 157.2 121 157.5C 121.6 157.9 122 156.1 122 153C 122 146.3 124.3 146.7 125.1 153.6L 125.7 158.5L 125.8 153.3C 126 149.3 126.4 148.1 127.8 147.8C 131.7 147 125.4 146.5 118 147.1z"/>
<path style="stroke:none; fill:#fff" d="M 209 147C 203.8 147.3 201.3 147.7 203.5 147.9L 207.5 148.1L 204.2 149.8C 201.7 151.2 201.2 151.8 202.2 152.8C 202.9 153.5 204 154 204.6 154C 205.3 154 206.5 154.9 207.3 156.1C 209.1 158.7 209.8 157.7 209.7 152.5C 209.6 149.7 210 148.4 211.1 148.2C 213 147.9 213.5 156 211.7 157.3C 210.9 157.8 211.2 158 212.5 157.8C 214.1 157.5 214.6 156.6 214.8 152.7C 215 149.4 215.5 148 216.6 148C 217.6 148 218 149.2 218 152.4C 218 154.9 218.5 157.2 219 157.5C 219.6 157.9 220 156.2 220 153.1C 220 148 221.3 146.2 222.3 150C 222.9 152.3 226.5 152.7 227.3 150.5C 228 148.9 226.9 147.9 223.7 147.5C 222.5 147.4 220.8 147 220 146.8C 219.2 146.6 214.2 146.7 209 147zM 226 149.4C 226 149.7 225.6 150.2 225 150.5C 224.5 150.8 224 150.6 224 150.1C 224 149.5 224.5 149 225 149C 225.6 149 226 149.2 226 149.4zM 208 152.5C 208 153.4 207.4 153.7 206.5 153.4C 205.7 153 205 152.4 205 151.9C 205 151.4 205.7 151 206.5 151C 207.3 151 208 151.7 208 152.5z"/>
<path style="stroke:none; fill:#fff" d="M 83.3 153.7C 84.2 153.9 85.8 153.9 86.8 153.7C 87.7 153.4 86.9 153.2 85 153.2C 83.1 153.2 82.3 153.4 83.3 153.7z"/>
<path style="stroke:none; fill:#fff" d="M 105.2 154.1C 105.4 154.6 107.1 156.1 109 157.2L 112.5 159.4L 109.6 156.2C 106.7 153 104.5 152 105.2 154.1z"/>
<path style="stroke:none; fill:#fff" d="M 223 153.8C 223 154.7 228.5 159 229.6 159C 230 159 229.1 157.6 227.5 156C 224.7 153 223 152.2 223 153.8z"/>
<path style="stroke:none; fill:#fff" d="M 77 158.5C 77 158.7 78 159.5 79.3 160.1C 81.3 161.2 81.4 161.2 80.1 159.7C 78.8 158.1 77 157.4 77 158.5z"/>
</g>
</g>
</svg>