<?xml version="1.0" encoding="UTF-8" standalone="yes"?>
<svg xmlns="http://www.w3.org/2000/svg" xmlns:xlink="http://www.w3.org/1999/xlink" width="496pt" height="617pt" viewBox="0 0 496 617" fill-rule="evenodd">
<g>
<g>
<path style="stroke:none;fill: #c30be4;" d="M 1.3 153.7C 1.7 325.7 1.1 312.7 9.6 348.9C 14.6 370 18.2 381.4 25.4 399C 55.5 472.2 118.6 545.6 187.3 587.3C 206 598.7 241.2 615 247 615C 250.3 615 265.4 608.9 281.5 601C 352.4 566.4 419.9 497.8 458.3 421.5C 470.3 397.6 477.7 376.9 484.4 348.9C 492.9 312.7 492.3 325.7 492.7 153.7L 493.1 0.999939L 247 0.999939L 0.899963 0.999939L 1.3 153.7zM 239 142L 239 268L 127.5 268L 16 268L 16 142L 16 16L 127.5 16L 239 16L 239 142zM 478 142L 478 268L 366 268L 254 268L 254 142.7C 254 73.7 254.3 16.9999 254.7 16.7C 255 16.2999 305.4 15.9999 366.7 15.9999L 478 15.9999L 478 142zM 239 440L 239 596L 233.8 593.9C 230.9 592.8 221.3 588.2 212.5 583.7C 139.5 546.5 69.3 468.4 38.1 389.8C 31.3 372.6 28.6 363.8 24.6 346.5C 20.5 328.7 18.3 316.1 17.6 306.5C 17.3 302.6 16.8 296 16.5 291.7L 15.9 284L 127.5 284L 239 284L 239 440zM 477.4 293.7C 476.1 317.4 470.3 348.3 462.8 371C 438.7 445.3 380.6 519.7 309.6 567.4C 298.4 574.9 262.7 593.8 256.3 595.5L 254 596.1L 254 440.1L 254 284L 366 284L 477.9 284L 477.4 293.7z"/>
<path style="stroke:none;fill: #00e2a4;" d="M 89 62.7C 87.1 62.8 80.4 63.7 74.2 64.6L 63 66.2L 63.2 141.9L 63.5 217.5L 73 218.8C 78.2 219.6 91.1 220.2 101.5 220.3C 117.8 220.4 121.7 220.1 129.2 218.2C 160.6 210.4 179.5 193 188.6 163.5C 191.1 155.2 191.2 131.4 188.7 122C 178.1 81.9 137.9 58 89 62.7zM 120 79.6C 130.2 81.9 142 88.2 150.3 96.0001C 158.2 103.4 162.9 110.5 166.8 120.8C 169.2 126.9 169.4 128.9 169.4 142.5C 169.5 157.2 169.4 157.7 166.2 165.5C 160.1 180.6 149.5 191.9 134.5 199C 123.5 204.3 117.3 205.3 100.4 204.8C 92.1 204.5 84.8 204 84.2 203.6C 82.6 202.6 82.5 80.4 84 79.5001C 85.7 78.5001 101.9 77.3 108 77.8C 111 78.0001 116.4 78.8 120 79.6z"/>
<path style="stroke:none;fill: #103292;" d="M 312.3 87.9C 285.9 99.8 264.4 109.7 264.6 109.9C 264.8 110.1 287 120.1 314 132.1L 363 153.9L 400.2 137.3C 420.7 128.2 437.8 120.6 438.3 120.3C 438.7 120.1 439 123.9 439 128.8L 439 137.7L 435.5 140.1C 433.1 141.7 431.6 143.7 430.9 146.4C 429.5 151.5 430.4 154.6 434.5 158.7L 437.9 162.1L 435.9 174.7C 433.2 192.7 432.5 191 442.5 191L 451.1 191L 450.6 187.7C 450.3 186 449.3 179.4 448.4 173.1L 446.8 161.7L 449.3 159.6C 456.2 153.8 455.5 143.4 447.9 139.4L 445 137.9L 445 127.5L 445 117L 448.8 115.5C 450.8 114.6 454.6 113 457.2 111.7L 461.9 109.5L 413.2 87.6999C 386.4 75.7999 363.6 65.9999 362.5 66.0999C 361.4 66.1999 338.8 75.9 312.3 87.9z"/>
<path style="stroke:none;fill: #00bcd4;" d="M 309.9 144.4C 308.9 146.8 307.7 152.2 307.3 156.4L 306.7 164L 311.2 164C 317.1 164 329.5 167.2 335.7 170.3C 343.8 174.4 352.9 181.9 358 188.7L 362.8 195.1L 365.8 190.7C 375.7 176.3 398.1 164 414.4 164L 419.3 164L 418.7 156.6C 418.2 150.1 415.1 140 413.6 140C 413.3 140 401.8 145 388 151L 362.8 162.1L 338 151C 324.3 145 312.9 140 312.5 140C 312.2 140 311 142 309.9 144.4z"/>
<path style="stroke:none;fill: #00bcd4;" d="M 174.3 328C 167.9 329.3 166.5 330.3 151.5 345C 143.8 352.5 136.3 359.1 134.8 359.8C 130.8 361.5 116.9 375.1 114 380.1C 112.6 382.5 103.6 392.5 93.9 402.5C 75 421.8 73 424.9 74.4 432.4C 75.2 436.5 84 446.7 90.5 450.9C 94 453.1 95.6 453.5 102.5 453.5C 108.7 453.5 111.2 453.1 113.5 451.6C 115.2 450.5 123.3 443 131.6 434.8C 141.7 424.9 147.4 420 148.8 420C 150.9 420 151 420.4 151 429.5C 151 441.5 152.1 442.4 158.8 435.7L 163.5 431L 168.1 435.6C 175.9 443.3 176 443 176 414.8L 176 390.5L 190 376.5C 197.8 368.8 205 361.1 206 359.5C 210.7 351.9 210.5 341.4 205.4 333.7C 202.7 329.6 200.2 329 197.6 331.9C 195.8 333.9 195.7 333.9 192.1 331.5C 189.1 329.5 180.9 326.8 179 327.1C 178.7 327.2 176.6 327.6 174.3 328zM 183.3 333.1C 185.6 333.6 188.5 334.9 189.8 335.8L 192 337.5L 177.7 351.8L 163.3 366.1L 159.4 364.4C 157.3 363.5 154.8 362.4 154 361.9C 153.2 361.4 151 360.3 149.1 359.4L 145.7 357.8L 155.1 348.4C 165.7 337.6 168.7 335.2 173.9 333.4C 178.4 331.8 178.2 331.8 183.3 333.1zM 203.7 341.6C 204.9 344.8 204.9 346.5 203.9 351C 202.8 356.2 202 357.3 188.7 370.7C 181 378.6 174.3 385 173.8 385C 173.4 385 172.8 383.9 172.4 382.5C 172.1 381.2 171.2 379.6 170.5 379C 169.7 378.3 168.6 376.2 167.9 374.3L 166.8 370.8L 183.6 353.9C 192.9 344.6 200.9 337.1 201.4 337.3C 201.9 337.5 203 339.4 203.7 341.6zM 156.3 368.4C 160.7 370.2 163 374 163 379.3C 163 390.5 149.9 394.6 142.5 385.9C 137.9 380.4 139.5 373.1 146.4 368.9C 150.1 366.6 152 366.5 156.3 368.4zM 133.4 378.6C 134.3 378.9 135 380.2 135 381.4C 135.1 382.5 135.9 385.1 137 387L 138.9 390.5L 124.9 404.6C 117.3 412.3 111 419.2 111 419.8C 111 420.4 112.3 422.5 114 424.3C 116.8 427.6 116.9 427.8 115.2 429.4C 113.5 430.9 112.9 430.5 105.4 423C 99.8 417.4 96.4 414.8 94.1 414.4L 90.8 413.7L 108.6 395.9C 126.8 377.6 128.3 376.6 133.4 378.6zM 149.2 395.7C 151.8 396.2 154 399.9 154 403.8C 154 405.4 126.3 434 124.8 434C 124.4 434 124 433.1 124 432C 124 429.6 121.5 424.4 119.2 421.7C 117.7 420 118.5 419.1 130.6 406.9C 139.2 398.2 144 394.2 145 394.6C 145.8 394.9 147.7 395.4 149.2 395.7zM 94.8 420.3L 97 421.6L 93 425.5C 90.8 427.6 89 430 89 430.7C 89 432.9 97.2 441.2 100.8 442.7C 105.5 444.7 110 443 115 437.3C 118.9 432.8 119 432.8 119 435.5C 119 442.5 110.7 449 101.9 449C 96.5 449 90.5 445.5 84.4 438.8C 79.3 433.3 78.3 429.4 80.5 424.7C 83 419.4 89.5 417.4 94.8 420.3z"/>
<path style="stroke:none;fill: #00e2a4;" d="M 300 396L 300 473L 344 473L 388 473L 388 465.5L 388 458L 354 458L 320 458L 320 430L 320 402L 343 402L 366 402L 366 394L 366 386L 343 386L 320 386L 320 360L 320 334L 354 334L 388 334L 388 326.5L 388 319L 344 319L 300 319L 300 396z"/>
</g>
</g>
</svg>